<svg id="Capa_1" enable-background="new 0 0 511.987 511.987" height="512" viewBox="0 0 511.987 511.987" width="512" xmlns="http://www.w3.org/2000/svg"><g><path d="m511.919 170.769c-.646-8.125-5.856-14.759-13.599-17.312l-460.799-152c-10.302-3.402-21.468-.748-29.139 6.924s-10.324 18.836-6.924 29.137l24.45 74.12c1.298 3.934 5.541 6.07 9.472 4.773 3.934-1.298 6.07-5.539 4.773-9.472l-24.45-74.122c-1.639-4.964-.41-10.134 3.286-13.831 3.696-3.696 8.865-4.925 13.832-3.286l460.801 152c2.787.919 3.268 3.282 3.345 4.255.077.974-.024 3.383-2.628 4.729l-59.93 30.96c-3.68 1.901-5.122 6.426-3.221 10.106 1.333 2.58 3.954 4.06 6.67 4.059 1.159 0 2.335-.27 3.436-.838l59.931-30.961c7.241-3.742 11.339-11.116 10.694-19.241z"/><path d="m370.223 261.356c-.785-.785-.779-1.688-.706-2.156.073-.465.34-1.32 1.326-1.828l39.34-20.33c3.68-1.902 5.121-6.426 3.22-10.106-1.902-3.679-6.425-5.121-10.106-3.22l-39.33 20.325c-5.02 2.585-8.398 7.267-9.269 12.844-.872 5.584.921 11.079 4.919 15.078l123.766 123.776c.921.918 1.428 2.142 1.428 3.445 0 1.304-.507 2.528-1.433 3.452l-80.746 80.746c-.919.921-2.143 1.428-3.447 1.428-1.303 0-2.527-.507-3.451-1.434l-123.77-123.76c-3.998-3.998-9.49-5.79-15.078-4.919-5.577.871-10.259 4.25-12.839 9.26l-67.359 130.378c-1.348 2.607-3.756 2.708-4.73 2.63-.973-.077-3.335-.558-4.255-3.345l-116.49-353.16c-1.297-3.934-5.539-6.069-9.472-4.773-3.934 1.297-6.071 5.538-4.773 9.472l116.49 353.16c2.386 7.281 10.04 13.822 18.979 13.666 7.457 0 14.091-4.018 17.577-10.763l67.365-130.389c.502-.976 1.357-1.243 1.823-1.316s1.372-.08 2.156.706l123.764 123.754c3.753 3.761 8.748 5.832 14.063 5.832 5.315 0 10.311-2.071 14.058-5.827l80.735-80.735c3.761-3.753 5.832-8.748 5.832-14.064s-2.071-10.311-5.826-14.058z"/></g></svg>